<?xml version="1.0" encoding="UTF-8"?>
<svg xmlns="http://www.w3.org/2000/svg" xmlns:xlink="http://www.w3.org/1999/xlink" viewBox="0 0 50 50" version="1.1" width="30px" height="30px">
<g id="surface1">
<path style=" " d="M 19 5 C 17.355469 5 16 6.355469 16 8 L 16 11 L 3 11 C 1.355469 11 0 12.355469 0 14 L 0 22.6875 C -0.0585938 22.882813 -0.0585938 23.085938 0 23.28125 L 0 42 C 0 43.644531 1.355469 45 3 45 L 47 45 C 48.644531 45 50 43.644531 50 42 L 50 23.1875 C 50.027344 23.054688 50.027344 22.914063 50 22.78125 L 50 14 C 50 12.355469 48.644531 11 47 11 L 34 11 L 34 8 C 34 6.355469 32.644531 5 31 5 Z M 19 7 L 31 7 C 31.5625 7 32 7.4375 32 8 L 32 11 L 18 11 L 18 8 C 18 7.4375 18.4375 7 19 7 Z M 3 13 L 47 13 C 47.5625 13 48 13.4375 48 14 L 48 22 L 41 22 C 41 20.90625 40.09375 20 39 20 L 34 20 C 32.90625 20 32 20.90625 32 22 L 18 22 C 18 20.90625 17.09375 20 16 20 L 11 20 C 9.90625 20 9 20.90625 9 22 L 2 22 L 2 14 C 2 13.4375 2.4375 13 3 13 Z M 11 22 L 16 22 L 16 22.6875 C 15.941406 22.882813 15.941406 23.085938 16 23.28125 L 16 24 L 11 24 L 11 23.1875 C 11.027344 23.054688 11.027344 22.914063 11 22.78125 Z M 34 22 L 39 22 L 39 22.6875 C 38.941406 22.882813 38.941406 23.085938 39 23.28125 L 39 24 L 34 24 L 34 23.1875 C 34.027344 23.054688 34.027344 22.914063 34 22.78125 Z M 2 24 L 9 24 C 9 25.09375 9.90625 26 11 26 L 16 26 C 17.09375 26 18 25.09375 18 24 L 32 24 C 32 25.09375 32.90625 26 34 26 L 39 26 C 40.09375 26 41 25.09375 41 24 L 48 24 L 48 42 C 48 42.5625 47.5625 43 47 43 L 3 43 C 2.4375 43 2 42.5625 2 42 Z "/>
</g>
</svg>
