<svg width="87" height="32" viewBox="0 0 87 32" version="1.1" xmlns="http://www.w3.org/2000/svg" xmlns:xlink="http://www.w3.org/1999/xlink">
<title>logo</title>
<desc>Created using Figma</desc>
<g id="Canvas" transform="translate(319 271)">
<g id="logo">
<g id="icons8-add-new">
<g id="Vector">
<use xlink:href="#path0_fill" transform="translate(-319 -271)" fill="#FFFFFF"/>
</g>
</g>
<g id="Plus">
<use xlink:href="#path1_fill" transform="translate(-278 -269)" fill="#FFFFFF"/>
</g>
</g>
</g>
<defs>
<path id="path0_fill" d="M 3.80952 0C 1.71775 0 0 1.71775 0 3.80952L 0 28.1905C 0 30.2823 1.71775 32 3.80952 32L 28.1905 32C 30.2823 32 32 30.2823 32 28.1905L 32 3.80952C 32 1.71775 30.2823 0 28.1905 0L 3.80952 0ZM 3.80952 1.52381L 28.1905 1.52381C 29.4511 1.52381 30.4762 2.54892 30.4762 3.80952L 30.4762 28.1905C 30.4762 29.4511 29.4511 30.4762 28.1905 30.4762L 3.80952 30.4762C 2.54892 30.4762 1.52381 29.4511 1.52381 28.1905L 1.52381 3.80952C 1.52381 2.54892 2.54892 1.52381 3.80952 1.52381ZM 15.2381 6.85714L 15.2381 15.2381L 6.85714 15.2381L 6.85714 16.7619L 15.2381 16.7619L 15.2381 25.1429L 16.7619 25.1429L 16.7619 16.7619L 25.1429 16.7619L 25.1429 15.2381L 16.7619 15.2381L 16.7619 6.85714L 15.2381 6.85714Z"/>
<path id="path1_fill" d="M 4.23047 15.3203L 4.23047 22L 1.98047 22L 1.98047 4.9375L 8.27344 4.9375C 10.1406 4.9375 11.6016 5.41406 12.6562 6.36719C 13.7188 7.32031 14.25 8.58203 14.25 10.1523C 14.25 11.8086 13.7305 13.0859 12.6914 13.9844C 11.6602 14.875 10.1797 15.3203 8.25 15.3203L 4.23047 15.3203ZM 4.23047 13.4805L 8.27344 13.4805C 9.47656 13.4805 10.3984 13.1992 11.0391 12.6367C 11.6797 12.0664 12 11.2461 12 10.1758C 12 9.16016 11.6797 8.34766 11.0391 7.73828C 10.3984 7.12891 9.51953 6.8125 8.40234 6.78906L 4.23047 6.78906L 4.23047 13.4805ZM 19.1367 22L 16.9688 22L 16.9688 4L 19.1367 4L 19.1367 22ZM 30.4453 20.7461C 29.6016 21.7383 28.3633 22.2344 26.7305 22.2344C 25.3789 22.2344 24.3477 21.8438 23.6367 21.0625C 22.9336 20.2734 22.5781 19.1094 22.5703 17.5703L 22.5703 9.32031L 24.7383 9.32031L 24.7383 17.5117C 24.7383 19.4336 25.5195 20.3945 27.082 20.3945C 28.7383 20.3945 29.8398 19.7773 30.3867 18.543L 30.3867 9.32031L 32.5547 9.32031L 32.5547 22L 30.4922 22L 30.4453 20.7461ZM 43.2422 18.6367C 43.2422 18.0508 43.0195 17.5977 42.5742 17.2773C 42.1367 16.9492 41.3672 16.668 40.2656 16.4336C 39.1719 16.1992 38.3008 15.918 37.6523 15.5898C 37.0117 15.2617 36.5352 14.8711 36.2227 14.418C 35.918 13.9648 35.7656 13.4258 35.7656 12.8008C 35.7656 11.7617 36.2031 10.8828 37.0781 10.1641C 37.9609 9.44531 39.0859 9.08594 40.4531 9.08594C 41.8906 9.08594 43.0547 9.45703 43.9453 10.1992C 44.8438 10.9414 45.293 11.8906 45.293 13.0469L 43.1133 13.0469C 43.1133 12.4531 42.8594 11.9414 42.3516 11.5117C 41.8516 11.082 41.2188 10.8672 40.4531 10.8672C 39.6641 10.8672 39.0469 11.0391 38.6016 11.3828C 38.1562 11.7266 37.9336 12.1758 37.9336 12.7305C 37.9336 13.2539 38.1406 13.6484 38.5547 13.9141C 38.9688 14.1797 39.7148 14.4336 40.793 14.6758C 41.8789 14.918 42.7578 15.207 43.4297 15.543C 44.1016 15.8789 44.5977 16.2852 44.918 16.7617C 45.2461 17.2305 45.4102 17.8047 45.4102 18.4844C 45.4102 19.6172 44.957 20.5273 44.0508 21.2148C 43.1445 21.8945 41.9688 22.2344 40.5234 22.2344C 39.5078 22.2344 38.6094 22.0547 37.8281 21.6953C 37.0469 21.3359 36.4336 20.8359 35.9883 20.1953C 35.5508 19.5469 35.332 18.8477 35.332 18.0977L 37.5 18.0977C 37.5391 18.8242 37.8281 19.4023 38.3672 19.832C 38.9141 20.2539 39.6328 20.4648 40.5234 20.4648C 41.3438 20.4648 42 20.3008 42.4922 19.9727C 42.9922 19.6367 43.2422 19.1914 43.2422 18.6367Z"/>
</defs>
</svg>
