<?xml version="1.0" encoding="UTF-8"?>
<svg xmlns="http://www.w3.org/2000/svg" xmlns:xlink="http://www.w3.org/1999/xlink" viewBox="0 0 48 48" version="1.1" width="48px" height="48px">
<g id="surface1">
<path style=" fill:#FFC107;" d="M 42 36 L 28 36 L 28 16 C 28 14.898438 28.898438 14 30 14 L 38 14 C 38.601563 14 39.199219 14.300781 39.601563 14.800781 L 45.601563 22.5 C 45.898438 22.898438 46 23.300781 46 23.699219 L 46 32 C 46 34.199219 44.199219 36 42 36 Z "/>
<path style=" fill:#9575CD;" d="M 6 36 L 28 36 L 28 12 C 28 9.800781 26.199219 8 24 8 L 7 8 C 4.199219 8 2 10.199219 2 13 L 2 32 C 2 34.199219 3.800781 36 6 36 Z "/>
<path style=" fill:#37474F;" d="M 42 36 C 42 38.761719 39.761719 41 37 41 C 34.238281 41 32 38.761719 32 36 C 32 33.238281 34.238281 31 37 31 C 39.761719 31 42 33.238281 42 36 Z "/>
<path style=" fill:#37474F;" d="M 19 36 C 19 38.761719 16.761719 41 14 41 C 11.238281 41 9 38.761719 9 36 C 9 33.238281 11.238281 31 14 31 C 16.761719 31 19 33.238281 19 36 Z "/>
<path style=" fill:#78909C;" d="M 39.5 36 C 39.5 37.378906 38.378906 38.5 37 38.5 C 35.621094 38.5 34.5 37.378906 34.5 36 C 34.5 34.621094 35.621094 33.5 37 33.5 C 38.378906 33.5 39.5 34.621094 39.5 36 Z "/>
<path style=" fill:#78909C;" d="M 16.5 36 C 16.5 37.378906 15.378906 38.5 14 38.5 C 12.621094 38.5 11.5 37.378906 11.5 36 C 11.5 34.621094 12.621094 33.5 14 33.5 C 15.378906 33.5 16.5 34.621094 16.5 36 Z "/>
<path style=" fill:#455A64;" d="M 42 26 L 38.398438 26 C 38.101563 26 37.898438 25.898438 37.699219 25.699219 L 36.300781 24.300781 C 36.101563 24.101563 35.898438 24 35.601563 24 L 32 24 C 31.398438 24 31 23.601563 31 23 L 31 17 C 31 16.398438 31.398438 16 32 16 L 37.5 16 C 37.800781 16 38.101563 16.101563 38.300781 16.398438 L 42.800781 21.800781 C 42.898438 22 43 22.199219 43 22.398438 L 43 25 C 43 25.601563 42.601563 26 42 26 Z "/>
<path style=" fill:#FFFFFF;" d="M 8.601563 22.101563 L 6.398438 22.101563 L 6.398438 25 L 5 25 L 5 18 L 8.898438 18 L 8.898438 19.199219 L 6.398438 19.199219 L 6.398438 21 L 8.601563 21 Z "/>
<path style=" fill:#FFFFFF;" d="M 12.300781 22.398438 L 11.601563 22.398438 L 11.601563 25 L 10.199219 25 L 10.199219 18 L 12.5 18 C 13.699219 18 14.699219 18.601563 14.699219 20.101563 C 14.699219 21.601563 13.800781 22 13.699219 22.101563 L 14.898438 25 L 13.398438 25 Z M 11.601563 21.300781 L 12.398438 21.300781 C 13.199219 21.300781 13.199219 20.601563 13.199219 20.300781 C 13.199219 20.101563 13.199219 19.199219 12.398438 19.199219 L 11.601563 19.199219 Z "/>
<path style=" fill:#FFFFFF;" d="M 19.699219 22 L 17.5 22 L 17.5 23.898438 L 20.101563 23.898438 L 20.101563 25 L 16.101563 25 L 16.101563 18 L 20.101563 18 L 20.101563 19.199219 L 17.5 19.199219 L 17.5 20.898438 L 19.699219 20.898438 Z "/>
<path style=" fill:#FFFFFF;" d="M 25.101563 22 L 22.898438 22 L 22.898438 23.898438 L 25.5 23.898438 L 25.5 25 L 21.5 25 L 21.5 18 L 25.5 18 L 25.5 19.199219 L 22.898438 19.199219 L 22.898438 20.898438 L 25.101563 20.898438 Z "/>
</g>
</svg>
