<svg width="75" height="75" viewBox="0 0 75 75" version="1.1" xmlns="http://www.w3.org/2000/svg" xmlns:xlink="http://www.w3.org/1999/xlink">
<title>rocket-2</title>
<desc>Created using Figma</desc>
<g id="Canvas" transform="translate(-66 -42)">
<g id="rocket-2">
<g id="Group">
<g id="Vector">
<use xlink:href="#path0_fill" transform="matrix(1 -5.55112e-17 5.55112e-17 1 68.382 95.77)" fill="#FF6666"/>
</g>
<g id="Group">
<g id="Vector">
<use xlink:href="#path1_fill" transform="matrix(1 -5.55112e-17 5.55112e-17 1 67.834 95.27)" fill="#D63E3E"/>
</g>
</g>
</g>
<g id="Group">
<g id="Vector">
<use xlink:href="#path2_fill" transform="matrix(1 -5.55112e-17 5.55112e-17 1 75.166 101.262)" fill="#FFD747"/>
</g>
</g>
<g id="Group">
<g id="Vector">
<use xlink:href="#path3_fill" transform="matrix(1 -5.55112e-17 5.55112e-17 1 71.978 85.897)" fill="#789CFA"/>
</g>
<g id="Group">
<g id="Vector">
<use xlink:href="#path4_fill" transform="matrix(1 -5.55112e-17 5.55112e-17 1 71.4785 85.191)" fill="#1F50CF"/>
</g>
</g>
</g>
<g id="Group">
<g id="Vector">
<use xlink:href="#path5_fill" transform="matrix(1 -5.55112e-17 5.55112e-17 1 66.845 73.492)" fill="#789CFA"/>
</g>
<g id="Group">
<g id="Vector">
<use xlink:href="#path6_fill" transform="matrix(1 -5.55112e-17 5.55112e-17 1 66 72.992)" fill="#1F50CF"/>
</g>
</g>
</g>
<g id="Group">
<g id="Vector">
<use xlink:href="#path7_fill" transform="matrix(1 -5.55112e-17 5.55112e-17 1 73.063 42.5)" fill="#C9D8FF"/>
</g>
<g id="Group">
<g id="Vector">
<use xlink:href="#path8_fill" transform="matrix(1 -5.55112e-17 5.55112e-17 1 72.356 42)" fill="#3261DB"/>
</g>
</g>
</g>
<g id="Group">
<g id="Vector">
<use xlink:href="#path9_fill" transform="matrix(1 -5.55112e-17 5.55112e-17 1 114.666 56.5)" fill="#789CFA"/>
</g>
<g id="Vector">
<use xlink:href="#path10_fill" transform="matrix(1 -5.55112e-17 5.55112e-17 1 114.166 56)" fill="#1F50CF"/>
</g>
</g>
<g id="Group">
<g id="Vector">
<use xlink:href="#path11_fill" transform="matrix(1 -5.55112e-17 5.55112e-17 1 99.833 71.333)" fill="#789CFA"/>
</g>
<g id="Vector">
<use xlink:href="#path12_fill" transform="matrix(1 -5.55112e-17 5.55112e-17 1 99.333 70.833)" fill="#1F50CF"/>
</g>
</g>
</g>
</g>
<defs>
<path id="path0_fill" d="M -3.05176e-08 18.846C 0.241 16.203 1.39 5.423 4.327 2.486C 5.931 0.881999 8.062 -7.62939e-07 10.329 -7.62939e-07C 12.597 -7.62939e-07 14.728 0.882999 16.331 2.486C 19.641 5.796 19.641 11.18 16.331 14.491C 13.393 17.429 2.639 18.6 -3.05176e-08 18.846Z"/>
<path id="path1_fill" d="M 10.878 0.999999C 13.012 0.999999 15.018 1.831 16.527 3.34C 18.036 4.849 18.867 6.855 18.867 8.989C 18.867 11.123 18.036 13.129 16.527 14.638C 14.108 17.057 5.449 18.365 1.098 18.796C 1.519 14.437 2.809 5.76 5.229 3.34C 6.738 1.831 8.744 0.999999 10.878 0.999999ZM 10.878 -7.62939e-07C 8.578 -7.62939e-07 6.277 0.877999 4.522 2.633C 1.012 6.143 1.10626e-07 19.897 1.10626e-07 19.897C 1.10626e-07 19.897 13.724 18.855 17.234 15.345C 20.744 11.835 20.744 6.144 17.234 2.633C 15.478 0.876999 13.178 -7.62939e-07 10.878 -7.62939e-07Z"/>
<path id="path2_fill" d="M 5.664 5.1145C 4.494 6.2845 3.66211e-07 6.5705 3.66211e-07 6.5705C 3.66211e-07 6.5705 0.256 2.0475 1.426 0.877498C 2.596 -0.292502 4.493 -0.292502 5.663 0.877498C 6.834 2.0475 6.834 3.9445 5.664 5.1145Z"/>
<path id="path3_fill" d="M 15.208 25.095C 14.541 25.095 13.914 24.835 13.443 24.364L 0.731 11.652C 0.259 11.18 1.64032e-07 10.553 1.64032e-07 9.887C 1.64032e-07 9.22 0.26 8.593 0.731 8.121L 8.852 -1.86157e-06L 25.094 16.243L 16.973 24.364C 16.502 24.836 15.875 25.095 15.208 25.095Z"/>
<path id="path4_fill" d="M 9.3515 1.414L 24.8865 16.949L 17.1195 24.716C 16.7425 25.093 16.2415 25.301 15.7085 25.301C 15.1755 25.301 14.6745 25.093 14.2975 24.716L 1.5845 12.004C 0.8065 11.226 0.8065 9.959 1.5845 9.181L 9.3515 1.414ZM 9.3515 6.71387e-07L 0.8775 8.474C -0.2925 9.644 -0.2925 11.541 0.8775 12.711L 13.5895 25.423C 14.1745 26.008 14.9415 26.301 15.7085 26.301C 16.4755 26.301 17.2425 26.009 17.8275 25.423L 26.3015 16.949L 9.3515 6.71387e-07Z"/>
<path id="path5_fill" d="M 29.226 34.707L 7.926 13.406L 2.86102e-08 9.444L 7.835 1.608C 8.873 0.571001 10.252 -6.40869e-07 11.719 -6.40869e-07C 12.079 -6.40869e-07 12.441 0.0359984 12.795 0.105998L 20.094 1.566L 41.067 22.538L 42.527 29.838C 42.888 31.644 42.326 33.498 41.025 34.8L 33.19 42.635L 29.226 34.707Z"/>
<path id="path6_fill" d="M 12.563 0.999999C 12.89 0.999999 13.22 1.033 13.541 1.097L 20.692 2.527L 41.451 23.286L 42.881 30.438C 43.209 32.079 42.699 33.764 41.516 34.947L 34.172 42.291L 30.555 35.057L 30.482 34.912L 30.367 34.797L 9.181 13.61L 9.066 13.495L 8.921 13.422L 1.688 9.806L 9.032 2.462C 9.976 1.519 11.229 0.999999 12.563 0.999999ZM 12.563 -6.40869e-07C 10.99 -6.40869e-07 9.461 0.62 8.326 1.755L 0 10.08L 8.474 14.317L 29.66 35.503L 33.898 43.978L 42.223 35.653C 43.64 34.236 44.255 32.205 43.862 30.241L 42.372 22.793L 21.185 1.605L 13.737 0.116C 13.347 0.0380005 12.953 -6.40869e-07 12.563 -6.40869e-07Z"/>
<path id="path7_fill" d="M -2.74658e-07 46.928L 42.544 4.384C 46.167 0.76 54.492 -2.86102e-08 60.837 -2.86102e-08C 63.822 -2.86102e-08 66.23 0.175 67.155 0.254C 67.403 3.04 68.583 19.303 63.023 24.862L 20.479 67.408L -2.74658e-07 46.928Z"/>
<path id="path8_fill" d="M 61.547 -2.86102e-08L 61.547 1C 64.135 1 66.287 1.133 67.4 1.218C 67.697 4.884 68.557 19.828 63.376 25.009L 21.186 67.2L 1.414 47.428L 43.605 5.238C 46.338 2.505 52.709 1 61.546 1L 61.547 -2.86102e-08ZM 61.546 -2.86102e-08C 55.385 -2.86102e-08 46.693 0.735 42.898 4.531C 36.704 10.724 -5.34058e-08 47.428 -5.34058e-08 47.428L 21.186 68.614C 21.186 68.614 57.783 32.017 64.084 25.716C 70.385 19.415 68.321 0.293 68.321 0.293C 68.321 0.293 65.439 -2.86102e-08 61.546 -2.86102e-08Z"/>
<path id="path9_fill" d="M 5.917 11.834C 9.18487 11.834 11.834 9.18487 11.834 5.917C 11.834 2.64913 9.18487 0 5.917 0C 2.64913 0 0 2.64913 0 5.917C 0 9.18487 2.64913 11.834 5.917 11.834Z"/>
<path id="path10_fill" d="M 6.417 1C 9.404 1 11.834 3.43 11.834 6.417C 11.834 9.404 9.404 11.834 6.417 11.834C 3.43 11.834 1 9.404 1 6.417C 1 3.43 3.431 1 6.417 1ZM 6.417 6.86646e-07C 2.873 6.86646e-07 3.66211e-07 2.873 3.66211e-07 6.417C 3.66211e-07 9.961 2.873 12.834 6.417 12.834C 9.961 12.834 12.834 9.961 12.834 6.417C 12.834 2.873 9.961 6.86646e-07 6.417 6.86646e-07Z"/>
<path id="path11_fill" d="M 5.917 11.834C 9.18487 11.834 11.834 9.18487 11.834 5.917C 11.834 2.64913 9.18487 0 5.917 0C 2.64913 0 0 2.64913 0 5.917C 0 9.18487 2.64913 11.834 5.917 11.834Z"/>
<path id="path12_fill" d="M 6.417 0.999999C 9.404 0.999999 11.834 3.43 11.834 6.417C 11.834 9.404 9.404 11.834 6.417 11.834C 3.43 11.834 1 9.404 1 6.417C 1 3.43 3.43 0.999999 6.417 0.999999ZM 6.417 8.69751e-07C 2.873 8.69751e-07 1.83105e-07 2.873 1.83105e-07 6.417C 1.83105e-07 9.961 2.873 12.834 6.417 12.834C 9.961 12.834 12.834 9.961 12.834 6.417C 12.834 2.873 9.961 8.69751e-07 6.417 8.69751e-07Z"/>
</defs>
</svg>
