<?xml version="1.0" encoding="UTF-8"?>
<svg xmlns="http://www.w3.org/2000/svg" xmlns:xlink="http://www.w3.org/1999/xlink" viewBox="0 0 48 48" version="1.1" width="48px" height="48px">
<g id="surface1">
<path style=" fill:#FF3D00;" d="M 8.445313 32.898438 C 10.007813 31.335938 12.539063 31.335938 14.101563 32.898438 C 15.664063 34.460938 15.664063 36.996094 14.101563 38.554688 C 12.539063 40.117188 6.324219 40.675781 6.324219 40.675781 C 6.324219 40.675781 6.882813 34.460938 8.445313 32.898438 Z "/>
<path style=" fill:#FFEB3B;" d="M 9.859375 34.3125 C 10.640625 33.53125 11.90625 33.53125 12.6875 34.3125 C 13.46875 35.09375 13.46875 36.359375 12.6875 37.140625 C 11.90625 37.921875 9.152344 37.851563 9.152344 37.851563 C 9.152344 37.851563 9.078125 35.097656 9.859375 34.3125 Z "/>
<path style=" fill:#D1C4E9;" d="M 29.65625 8.859375 C 27.535156 10.976563 9.152344 29.363281 9.152344 29.363281 L 17.636719 37.847656 C 17.636719 37.847656 36.019531 19.464844 38.140625 17.34375 C 39.261719 16.226563 40.179688 12.953125 40.800781 10.101563 L 36.898438 6.199219 C 34.046875 6.824219 30.773438 7.742188 29.65625 8.859375 Z "/>
<path style=" fill:#7E57C2;" d="M 21.171875 41.386719 L 19.050781 36.4375 L 27.535156 27.949219 L 26.121094 36.4375 Z "/>
<path style=" fill:#7E57C2;" d="M 5.617188 25.828125 L 10.566406 27.949219 L 19.050781 19.464844 L 10.566406 20.878906 Z "/>
<path style=" fill:#7E57C2;" d="M 36.898438 6.199219 L 40.800781 10.101563 C 41.359375 7.542969 41.675781 5.320313 41.675781 5.320313 C 41.675781 5.320313 39.460938 5.644531 36.898438 6.199219 Z "/>
<path style=" fill:#7E57C2;" d="M 17.636719 37.851563 L 14.808594 37.851563 L 9.152344 32.191406 L 9.152344 29.363281 Z "/>
<path style=" fill:#311B92;" d="M 31.65625 17.34375 C 31.65625 18.449219 30.761719 19.34375 29.65625 19.34375 C 28.550781 19.34375 27.65625 18.449219 27.65625 17.34375 C 27.65625 16.238281 28.550781 15.34375 29.65625 15.34375 C 30.761719 15.34375 31.65625 16.238281 31.65625 17.34375 Z "/>
<path style=" fill:#311B92;" d="M 26.707031 22.292969 C 26.707031 23.398438 25.8125 24.292969 24.707031 24.292969 C 23.601563 24.292969 22.707031 23.398438 22.707031 22.292969 C 22.707031 21.1875 23.601563 20.292969 24.707031 20.292969 C 25.8125 20.292969 26.707031 21.1875 26.707031 22.292969 Z "/>
<path style=" fill:#311B92;" d="M 21.757813 27.242188 C 21.757813 28.347656 20.863281 29.242188 19.757813 29.242188 C 18.652344 29.242188 17.757813 28.347656 17.757813 27.242188 C 17.757813 26.136719 18.652344 25.242188 19.757813 25.242188 C 20.863281 25.242188 21.757813 26.136719 21.757813 27.242188 Z "/>
</g>
</svg>
